<?xml version="1.0" encoding="utf-8"?>
<!-- Generator: Adobe Illustrator 23.0.2, SVG Export Plug-In . SVG Version: 6.00 Build 0)  -->
<svg version="1.1" id="Слой_1" xmlns="http://www.w3.org/2000/svg" xmlns:xlink="http://www.w3.org/1999/xlink" x="0px" y="0px"
	 viewBox="0 0 160 38" style="enable-background:new 0 0 160 38;" xml:space="preserve">
<style type="text/css">
	.st0{filter:url(#Adobe_OpacityMaskFilter);}
	.st1{fill-rule:evenodd;clip-rule:evenodd;fill:#FFFFFF;}
	.st2{mask:url(#mask-2_1_);fill-rule:evenodd;clip-rule:evenodd;fill:#FFFFFF;}
	.st3{filter:url(#Adobe_OpacityMaskFilter_1_);}
	.st4{mask:url(#mask-4_1_);fill-rule:evenodd;clip-rule:evenodd;fill:#FFFFFF;}
	.st5{filter:url(#Adobe_OpacityMaskFilter_2_);}
	.st6{mask:url(#mask-6_1_);fill-rule:evenodd;clip-rule:evenodd;fill:#FFFFFF;}
	.st7{filter:url(#Adobe_OpacityMaskFilter_3_);}
	.st8{mask:url(#mask-8_1_);fill-rule:evenodd;clip-rule:evenodd;fill:#FFFFFF;}
	.st9{fill:#FFFFFF;}
</style>
<title>Group 16</title>
<desc>Created with Sketch.</desc>
<g id="Page-1">
	<g id="Extra-large:-Desktops---12-col-Copy-5" transform="translate(-165.000000, -30.000000)">
		<g id="Хедер" transform="translate(165.000000, 30.000000)">
			<g id="Group-16">
				<g id="Group-3" transform="translate(63.000000, 1.000000)">
					<g id="Clip-2">
					</g>
					<defs>
						<filter id="Adobe_OpacityMaskFilter" filterUnits="userSpaceOnUse" x="9.8" y="-0.4" width="22.8" height="11.1">
							<feColorMatrix  type="matrix" values="1 0 0 0 0  0 1 0 0 0  0 0 1 0 0  0 0 0 1 0"/>
						</filter>
					</defs>
					<mask maskUnits="userSpaceOnUse" x="9.8" y="-0.4" width="22.8" height="11.1" id="mask-2_1_">
						<g class="st0">
							<path id="path-1_1_" class="st1" d="M9.8,10.7h5.3c0.5-3.1,3-5.5,6.1-5.5l0,0c3.1,0,5.7,2.4,6.1,5.5l0,0h5.3
								C32.2,4.5,27.3-0.4,21.3-0.4l0,0C15.3-0.4,10.3,4.5,9.8,10.7L9.8,10.7z"/>
						</g>
					</mask>
					<polygon id="Fill-1" class="st2" points="9.8,10.7 32.7,10.7 32.7,-0.4 9.8,-0.4 					"/>
				</g>
				<g id="Group-6" transform="translate(63.000000, 19.000000)">
					<g id="Clip-5">
					</g>
					<defs>
						<filter id="Adobe_OpacityMaskFilter_1_" filterUnits="userSpaceOnUse" x="9.8" y="-6.5" width="22.8" height="11">
							<feColorMatrix  type="matrix" values="1 0 0 0 0  0 1 0 0 0  0 0 1 0 0  0 0 0 1 0"/>
						</filter>
					</defs>
					<mask maskUnits="userSpaceOnUse" x="9.8" y="-6.5" width="22.8" height="11" id="mask-4_1_">
						<g class="st3">
							<path id="path-3_1_" class="st1" d="M27.4-6.5c-0.5,3.1-3,5.5-6.1,5.5l0,0c-3.1,0-5.7-2.4-6.1-5.5l0,0H9.8
								c0.5,6.2,5.4,11,11.4,11l0,0c6,0,10.9-4.9,11.4-11l0,0H27.4z"/>
						</g>
					</mask>
					<polygon id="Fill-4" class="st4" points="9.8,4.6 32.7,4.6 32.7,-6.5 9.8,-6.5 					"/>
				</g>
				<g id="Group-15">
					<path id="Fill-7" class="st1" d="M79.8,12c0,1.4,0.3,2.3,1.2,3.2c1.6,1.6,4.3,1.6,5.8,0.1c1.4-1.4,1.7-3.2,0.9-4.9
						c-0.4-0.9-1.2-1.6-2.1-2C82.5,7.1,79.8,9.5,79.8,12 M82.4,12.1c0,1.7,1.7,2.1,2.6,1.3c0.7-0.6,0.7-1.7-0.1-2.4
						C83.9,10.1,82.4,11,82.4,12.1"/>
					<g id="Group-11" transform="translate(94.982161, 0.000000)">
						<g id="Clip-10">
						</g>
						<defs>
							<filter id="Adobe_OpacityMaskFilter_2_" filterUnits="userSpaceOnUse" x="-1" y="0" width="42.3" height="24.9">
								<feColorMatrix  type="matrix" values="1 0 0 0 0  0 1 0 0 0  0 0 1 0 0  0 0 0 1 0"/>
							</filter>
						</defs>
						<mask maskUnits="userSpaceOnUse" x="-1" y="0" width="42.3" height="24.9" id="mask-6_1_">
							<g class="st5">
								<polygon id="path-5_1_" class="st1" points="-1,0 41.3,0 41.3,24.9 -1,24.9 								"/>
							</g>
						</mask>
						<path id="Fill-9" class="st6" d="M18.6,8.9H4.1L4,8.6C3.7,7.1,3,5.4,2.2,3.9C1.2,2.1,0.6,1.3-1,0h6.8l0.1,0.1
							c0.5,0.5,0.9,1,1.3,1.6c0.3,0.5,0.6,1,0.8,1.4h21.7c0.2-0.6,0.7-1.1,1.4-1.1c0.8,0,1.4,0.6,1.4,1.4S31.8,4.9,31,4.9
							c-0.7,0-1.2-0.4-1.4-1H7.5L7.4,3.6c-0.2-0.5-0.5-1-0.8-1.6C6.3,1.6,5.9,1.2,5.5,0.7H0.9c0.6,0.7,1.3,1.7,1.9,2.9
							c0.8,1.4,1.4,3.1,1.8,4.6h14c0.2-0.7,0.8-1.3,1.6-1.3c0.9,0,1.6,0.7,1.6,1.6s-0.7,1.6-1.6,1.6C19.4,10.2,18.8,9.6,18.6,8.9
							L18.6,8.9z M17.2,10.2h-2.8l0.7,0.7h2.8L17.2,10.2z M8.2,5.7h10.6l-0.7,0.7H8.2V5.7z M5.4,16h2.8l-0.7,0.7H5.4
							C5.2,17,5,17.2,4.6,17.2c-0.5,0-0.8-0.4-0.8-0.8c0-0.5,0.4-0.8,0.8-0.8C5,15.5,5.2,15.7,5.4,16L5.4,16z M28.8,12.5
							c0.8,0,1.4,0.6,1.4,1.4c0,0.8-0.6,1.4-1.4,1.4c-0.6,0-1.2-0.4-1.3-1H4l0.1-0.4c0.1-0.4,0.1-1,0.1-1.5c0-0.8,0-1.5-0.1-1.8
							L4,10.2h6.8c0.2-0.5,0.6-0.9,1.2-0.9c0.7,0,1.3,0.6,1.3,1.3c0,0.7-0.6,1.3-1.3,1.3c-0.6,0-1.1-0.4-1.2-0.9h-6
							c0,0.4,0,0.9,0,1.5c0,0.4,0,0.9,0,1.2h22.6C27.6,13,28.1,12.5,28.8,12.5L28.8,12.5z M23,16.3l-4.2,1.2v-0.9h-8l-2.3,2.1
							l-4.4,0c-0.4,1.1-1.1,2.4-2,3.5c-0.5,0.6-0.9,1.1-1.5,1.6c0,0.1,0,0.2,0,0.3c0,0.5-0.4,0.8-0.8,0.8S-1,24.6-1,24.1
							c0-0.5,0.4-0.8,0.8-0.8c0.1,0,0.2,0,0.3,0.1c0.5-0.4,1-0.9,1.4-1.5c0.9-1.1,1.6-2.4,2-3.5l0.1-0.2l4.6,0l2.3-2.1h8.3v-0.9
							L23,16.3z M41.3,11.8l-4.2,1.2v-0.9H20v-1.6h0.4c0.6,0,1.1-0.2,1.4-0.6c0.4-0.4,0.6-0.9,0.6-1.4c0-0.6-0.2-1.1-0.6-1.4
							c-0.4-0.4-0.9-0.6-1.4-0.6H20V4.9h5.9c0.1-0.3,0.4-0.5,0.8-0.5c0.5,0,0.8,0.4,0.8,0.8c0,0.5-0.4,0.8-0.8,0.8
							c-0.3,0-0.6-0.2-0.8-0.5h-5.2v0.3c0.6,0.1,1.2,0.4,1.6,0.8c0.5,0.5,0.8,1.2,0.8,1.9c0,0.7-0.3,1.4-0.8,1.9
							c-0.4,0.4-1,0.7-1.6,0.8v0.3h16.4v-0.9L41.3,11.8z M4.1,1.3C4.6,1.3,5,1.7,5,2.2c0,0.2-0.1,0.4-0.2,0.5l1.5,2.7c0,0,0,0,0.1,0
							c0.5,0,0.8,0.4,0.8,0.8c0,0.5-0.4,0.8-0.8,0.8c-0.5,0-0.8-0.4-0.8-0.8c0-0.2,0.1-0.4,0.2-0.5L4.2,3c0,0,0,0,0,0
							C3.7,3,3.3,2.6,3.3,2.2C3.3,1.7,3.7,1.3,4.1,1.3L4.1,1.3z"/>
					</g>
					<g id="Group-14">
						<g id="Clip-13">
						</g>
						<defs>
							<filter id="Adobe_OpacityMaskFilter_3_" filterUnits="userSpaceOnUse" x="31.1" y="0" width="42.3" height="24.9">
								<feColorMatrix  type="matrix" values="1 0 0 0 0  0 1 0 0 0  0 0 1 0 0  0 0 0 1 0"/>
							</filter>
						</defs>
						<mask maskUnits="userSpaceOnUse" x="31.1" y="0" width="42.3" height="24.9" id="mask-8_1_">
							<g class="st7">
								<polygon id="path-7_1_" class="st1" points="31.1,0 73.4,0 73.4,24.9 31.1,24.9 								"/>
							</g>
						</mask>
						<path id="Fill-12" class="st8" d="M53.8,8.9h14.5l0.1-0.3c0.3-1.5,1-3.2,1.8-4.7c1-1.8,1.6-2.7,3.2-3.9h-6.8l-0.1,0.1
							c-0.5,0.5-0.9,1-1.3,1.6c-0.3,0.5-0.6,1-0.8,1.4H42.7c-0.2-0.6-0.7-1.1-1.4-1.1c-0.8,0-1.4,0.6-1.4,1.4s0.6,1.4,1.4,1.4
							c0.7,0,1.2-0.4,1.4-1h22.2L65,3.6c0.2-0.5,0.5-1,0.8-1.6c0.3-0.5,0.7-0.9,1.1-1.4h4.6c-0.6,0.7-1.3,1.7-1.9,2.9
							c-0.8,1.4-1.4,3.1-1.8,4.6h-14c-0.2-0.7-0.8-1.3-1.6-1.3c-0.9,0-1.6,0.7-1.6,1.6s0.7,1.6,1.6,1.6C53,10.2,53.6,9.6,53.8,8.9
							L53.8,8.9z M55.2,10.2H58l-0.7,0.7h-2.8L55.2,10.2z M64.2,5.7H53.6l0.7,0.7h9.9V5.7z M67,16h-2.8l0.7,0.7H67
							c0.1,0.3,0.4,0.5,0.8,0.5c0.5,0,0.8-0.4,0.8-0.8c0-0.5-0.4-0.8-0.8-0.8C67.4,15.5,67.1,15.7,67,16L67,16z M43.6,12.5
							c-0.8,0-1.4,0.6-1.4,1.4c0,0.8,0.6,1.4,1.4,1.4c0.6,0,1.2-0.4,1.3-1h23.4l-0.1-0.4c-0.1-0.4-0.1-1-0.1-1.5
							c0-0.8,0-1.5,0.1-1.8l0.1-0.4h-6.8c-0.2-0.5-0.6-0.9-1.2-0.9c-0.7,0-1.3,0.6-1.3,1.3c0,0.7,0.6,1.3,1.3,1.3
							c0.6,0,1.1-0.4,1.2-0.9h6c0,0.4,0,0.9,0,1.5c0,0.4,0,0.9,0,1.2H44.9C44.8,13,44.2,12.5,43.6,12.5L43.6,12.5z M49.4,16.3
							l4.2,1.2v-0.9h8l2.3,2.1l4.4,0c0.4,1.1,1.1,2.4,2,3.5c0.5,0.6,0.9,1.1,1.5,1.6c0,0.1,0,0.2,0,0.3c0,0.5,0.4,0.8,0.8,0.8
							c0.5,0,0.8-0.4,0.8-0.8c0-0.5-0.4-0.8-0.8-0.8c-0.1,0-0.2,0-0.3,0.1c-0.5-0.4-1-0.9-1.4-1.5c-0.9-1.1-1.6-2.4-2-3.5l-0.1-0.2
							l-4.6,0L61.9,16h-8.3v-0.9L49.4,16.3z M31.1,11.8l4.2,1.2v-0.9h17.1v-1.6H52c-0.6,0-1.1-0.2-1.4-0.6C50.2,9.6,50,9.1,50,8.5
							c0-0.6,0.2-1.1,0.6-1.4C51,6.7,51.5,6.5,52,6.5h0.4V4.9h-5.9c-0.1-0.3-0.4-0.5-0.8-0.5c-0.5,0-0.8,0.4-0.8,0.8
							c0,0.5,0.4,0.8,0.8,0.8c0.3,0,0.6-0.2,0.8-0.5h5.2v0.3c-0.6,0.1-1.2,0.4-1.6,0.8c-0.5,0.5-0.8,1.2-0.8,1.9
							c0,0.7,0.3,1.4,0.8,1.9c0.4,0.4,1,0.7,1.6,0.8v0.3H35.2v-0.9L31.1,11.8z M68.3,1.3c-0.5,0-0.8,0.4-0.8,0.8
							c0,0.2,0.1,0.4,0.2,0.5l-1.5,2.7c0,0,0,0-0.1,0c-0.5,0-0.8,0.4-0.8,0.8c0,0.5,0.4,0.8,0.8,0.8c0.5,0,0.8-0.4,0.8-0.8
							c0-0.2-0.1-0.4-0.2-0.5L68.2,3c0,0,0,0,0,0c0.5,0,0.8-0.4,0.8-0.8C69.1,1.7,68.7,1.3,68.3,1.3L68.3,1.3z"/>
					</g>
				</g>
			</g>
		</g>
	</g>
</g>
<g>
	<path class="st9" d="M3.2,37.4H1.9v-7.7H3v4.9l0.4-1.7l1-3.2h1.3v7.7H4.7v-5.4l-0.5,1.9L3.2,37.4z"/>
	<path class="st9" d="M7.8,37.4H6.6v-7.7h1.2V33h1.4v-3.3h1.2v7.7H9.2v-3.3H7.8V37.4z"/>
	<path class="st9" d="M14.8,32.8l1.4-3.1h1.2L16,32.8l1.5,4.6h-1.2L15.1,34l-0.3,0.6v2.8h-1.2v-2.8l-0.3-0.6l-1.1,3.4H11l1.5-4.5
		L11,29.7h1.2l1.4,3.1v-3.1h1.2V32.8z"/>
	<path class="st9" d="M19.2,32.9h1.7V34h-1.7v2.3h2.1v1.1H18v-7.7h3.3v1.1h-2.1V32.9z"/>
	<path class="st9" d="M23.2,37.4H22v-7.7h1.2V33h1.4v-3.3h1.2v7.7h-1.2v-3.3h-1.4V37.4z"/>
	<path class="st9" d="M27.9,32.9h1.7V34h-1.7v2.3H30v1.1h-3.3v-7.7H30v1.1h-2.1V32.9z"/>
	<path class="st9" d="M34.4,31.6v1c0,1.2-0.6,1.9-1.8,1.9H32v2.9h-1.2v-7.7h1.8C33.8,29.7,34.4,30.3,34.4,31.6z M32,30.8v2.6h0.6
		c0.4,0,0.6-0.2,0.6-0.7v-1.2c0-0.5-0.2-0.7-0.6-0.7H32z"/>
	<path class="st9" d="M36.1,37.4h-1.2v-7.7h1.2V33h1.4v-3.3h1.2v7.7h-1.2v-3.3h-1.4V37.4z"/>
	<path class="st9" d="M39.5,31.5c0-1.2,0.6-1.9,1.8-1.9c1.2,0,1.8,0.7,1.8,1.9v4c0,1.2-0.6,1.9-1.8,1.9c-1.2,0-1.8-0.7-1.8-1.9V31.5
		z M40.7,35.6c0,0.6,0.2,0.8,0.6,0.8c0.4,0,0.6-0.2,0.6-0.8v-4.2c0-0.5-0.2-0.8-0.6-0.8c-0.4,0-0.6,0.2-0.6,0.8V35.6z"/>
	<path class="st9" d="M43.9,33h2.2v1.1h-2.2V33z"/>
	<path class="st9" d="M46.6,29.7h3.7v1.1h-1.3v6.6h-1.2v-6.6h-1.3V29.7z"/>
	<path class="st9" d="M52.1,32.9h1.7V34h-1.7v2.3h2.1v1.1h-3.3v-7.7h3.3v1.1h-2.1V32.9z"/>
	<path class="st9" d="M58.9,29.7l-1.3,3.7l1.4,4h-1.3l-1-3l-1,3h-1.1l1.4-4l-1.3-3.7H56l0.9,2.8l0.9-2.8H58.9z"/>
	<path class="st9" d="M60.8,37.4h-1.2v-7.7h1.2V33h1.4v-3.3h1.2v7.7h-1.2v-3.3h-1.4V37.4z"/>
	<path class="st9" d="M64.2,31.5c0-1.2,0.6-1.9,1.8-1.9c1.2,0,1.8,0.7,1.8,1.9v4c0,1.2-0.6,1.9-1.8,1.9c-1.2,0-1.8-0.7-1.8-1.9V31.5
		z M65.4,35.6c0,0.6,0.2,0.8,0.6,0.8c0.4,0,0.6-0.2,0.6-0.8v-4.2c0-0.5-0.2-0.8-0.6-0.8c-0.4,0-0.6,0.2-0.6,0.8V35.6z"/>
	<path class="st9" d="M68.3,36.3c0.5,0,0.7-0.1,0.7-0.8l0.2-5.8h3.4v7.7h-1.2v-6.6h-1.1l-0.1,4.7c0,1.4-0.6,2-1.8,2h-0.2V36.3z"/>
	<path class="st9" d="M73.5,31.5c0-1.2,0.6-1.9,1.8-1.9c1.2,0,1.8,0.7,1.8,1.9v4c0,1.2-0.6,1.9-1.8,1.9c-1.2,0-1.8-0.7-1.8-1.9V31.5
		z M74.7,35.6c0,0.6,0.2,0.8,0.6,0.8c0.4,0,0.6-0.2,0.6-0.8v-4.2c0-0.5-0.2-0.8-0.6-0.8c-0.4,0-0.6,0.2-0.6,0.8V35.6z"/>
	<path class="st9" d="M78,37.4v-7.7h3.2v1.1h-2v6.6H78z"/>
	<path class="st9" d="M83.3,37.4H82v-7.7h1.1v4.9l0.4-1.7l1-3.2h1.3v7.7h-1.1v-5.4l-0.5,1.9L83.3,37.4z"/>
	<path class="st9" d="M90.4,29.7v7.7h-1.2v-3.1c-0.3,0.3-0.7,0.4-1,0.4c-1,0-1.5-0.7-1.5-1.8v-3.3h1.2v3.2c0,0.5,0.3,0.8,0.7,0.8
		s0.6-0.3,0.6-0.8v-3.1H90.4z"/>
	<path class="st9" d="M92.5,32.9h1.7V34h-1.7v2.3h2.1v1.1h-3.3v-7.7h3.3v1.1h-2.1V32.9z"/>
	<path class="st9" d="M98.8,34.5v1c0,1.2-0.6,1.9-1.8,1.9c-1.2,0-1.8-0.7-1.8-1.9v-4c0-1.2,0.6-1.9,1.8-1.9c1.2,0,1.8,0.7,1.8,1.9
		v0.7h-1.1v-0.8c0-0.5-0.2-0.8-0.6-0.8c-0.4,0-0.6,0.2-0.6,0.8v4.2c0,0.6,0.2,0.7,0.6,0.7c0.4,0,0.6-0.2,0.6-0.7v-1.1H98.8z"/>
	<path class="st9" d="M101.1,34.3l-0.4,0.7v2.4h-1.2v-7.7h1.2V33l1.6-3.4h1.2l-1.7,3.4l1.7,4.3h-1.2L101.1,34.3z"/>
	<path class="st9" d="M108,37.4h-1.2l-0.2-1.4h-1.5l-0.2,1.4h-1.1l1.2-7.7h1.8L108,37.4z M105.3,34.9h1.2l-0.6-3.9L105.3,34.9z"/>
	<path class="st9" d="M108.4,37.4c0.1-0.3,0.1-0.6,0.1-0.9v-1.2c0-0.8,0.2-1.4,0.8-1.6c-0.5-0.3-0.8-0.8-0.8-1.6v-0.6
		c0-1.2,0.5-1.8,1.8-1.8h1.8v7.7h-1.2v-3.1h-0.4c-0.5,0-0.8,0.3-0.8,1v1.2c0,0.6,0,0.7-0.1,0.9H108.4z M110.3,30.8
		c-0.4,0-0.6,0.2-0.6,0.8v0.8c0,0.6,0.3,0.8,0.7,0.8h0.5v-2.4H110.3z"/>
	<path class="st9" d="M114.7,37.4v-7.7h1.2v6.6h1v-6.6h1.2v6.6h1v-6.6h1.2v7.7H114.7z"/>
	<path class="st9" d="M122.9,34.3l-0.4,0.7v2.4h-1.2v-7.7h1.2V33l1.6-3.4h1.2l-1.7,3.4l1.7,4.3h-1.2L122.9,34.3z"/>
	<path class="st9" d="M125.8,31.5c0-1.2,0.6-1.9,1.8-1.9c1.2,0,1.8,0.7,1.8,1.9v4c0,1.2-0.6,1.9-1.8,1.9c-1.2,0-1.8-0.7-1.8-1.9
		V31.5z M127,35.6c0,0.6,0.2,0.8,0.6,0.8c0.4,0,0.6-0.2,0.6-0.8v-4.2c0-0.5-0.2-0.8-0.6-0.8c-0.4,0-0.6,0.2-0.6,0.8V35.6z"/>
	<path class="st9" d="M129.9,36.3c0.6,0,0.7-0.1,0.7-0.8l0.2-5.8h3.4v7.7H133v-6.6H132l-0.1,4.7c0,1.4-0.5,2-1.8,2h-0.2V36.3z"/>
	<path class="st9" d="M139.1,37.4h-1.2l-0.2-1.4h-1.5l-0.2,1.4h-1.1l1.2-7.7h1.8L139.1,37.4z M136.3,34.9h1.2l-0.6-3.9L136.3,34.9z"
		/>
	<path class="st9" d="M143.3,35.2h-0.7l-0.2,2.2h-1l0.2-2.2h-0.5l0.1-0.9h0.5l0.2-2h-0.5l0.1-0.9h0.5l0.2-1.8h1l-0.2,1.8h0.7
		l0.2-1.8h1l-0.2,1.8h0.6l-0.1,0.9h-0.6l-0.2,2h0.6l-0.1,0.9h-0.6l-0.2,2.2h-1L143.3,35.2z M142.7,34.3h0.7l0.2-2h-0.7L142.7,34.3z"
		/>
	<path class="st9" d="M149.4,29.7v1.1l-1.8,6.6h-1.2l1.8-6.6h-2.4v-1.1H149.4z"/>
	<path class="st9" d="M153.8,29.7v1.1l-1.8,6.6h-1.2l1.8-6.6h-2.4v-1.1H153.8z"/>
	<path class="st9" d="M158.1,29.7v1.1l-1.8,6.6h-1.2l1.8-6.6h-2.4v-1.1H158.1z"/>
</g>
</svg>
